<?xml version="1.0" standalone="no"?>
<!DOCTYPE svg PUBLIC "-//W3C//DTD SVG 20010904//EN"
 "http://www.w3.org/TR/2001/REC-SVG-20010904/DTD/svg10.dtd">
<svg version="1.0" xmlns="http://www.w3.org/2000/svg"
 width="700.000000pt" height="700.000000pt" viewBox="0 0 700.000000 700.000000"
 preserveAspectRatio="xMidYMid meet">
<metadata>
Created by potrace 1.11, written by Peter Selinger 2001-2013
</metadata>
<g transform="translate(0.000000,700.000000) scale(0.100000,-0.100000)"
fill="#000000" stroke="none">
<path d="M3380 6946 c-63 -29 -137 -63 -165 -76 -27 -12 -92 -42 -144 -66 -51
-24 -95 -44 -97 -44 -1 0 -40 -18 -86 -39 -46 -21 -132 -61 -193 -89 -60 -27
-140 -64 -177 -81 -154 -71 -201 -92 -265 -122 -38 -17 -81 -37 -98 -44 -16
-7 -66 -30 -110 -50 -44 -21 -114 -53 -155 -72 -41 -19 -88 -41 -105 -48 -16
-7 -61 -28 -100 -45 -38 -18 -92 -43 -120 -55 -27 -12 -84 -38 -125 -57 -41
-19 -294 -135 -562 -258 l-488 -223 0 -136 c-1 -1341 0 -3715 3 -3717 1 -2 93
-53 202 -114 110 -61 207 -115 215 -120 8 -6 21 -13 29 -17 7 -3 66 -35 130
-71 64 -35 150 -82 191 -104 41 -23 80 -44 85 -48 10 -7 27 -17 211 -118 49
-27 109 -60 134 -74 25 -14 137 -76 250 -138 113 -62 221 -122 240 -133 19
-11 58 -32 85 -47 54 -29 301 -166 375 -208 25 -13 95 -52 155 -85 61 -33 115
-63 120 -67 6 -4 46 -27 90 -50 44 -24 177 -97 295 -163 118 -66 234 -130 258
-143 l42 -24 258 143 c141 79 286 160 322 179 36 20 146 81 245 136 99 54 203
112 230 127 28 15 129 71 225 125 217 120 219 121 514 284 132 73 261 145 286
158 35 20 642 356 835 463 22 12 75 42 118 65 l77 44 0 135 c1 159 0 3653 0
3692 0 24 -12 32 -127 84 -71 32 -164 75 -208 96 -44 20 -132 60 -195 89 -63
29 -142 65 -175 80 -33 15 -134 61 -225 103 -91 41 -201 92 -245 112 -44 21
-118 54 -165 75 -47 21 -123 56 -170 78 -47 22 -137 63 -200 92 -135 61 -170
77 -350 160 -74 34 -148 68 -165 75 -16 8 -83 39 -149 69 -65 31 -120 56 -123
56 -2 0 -39 16 -81 36 -169 79 -530 244 -534 244 -2 -1 -55 -25 -118 -54z
m510 -676 c195 -89 393 -180 438 -201 46 -22 86 -39 88 -39 1 0 45 -20 96 -44
51 -24 300 -139 553 -254 253 -116 499 -228 547 -251 48 -22 111 -50 139 -62
l51 -22 -23 -18 c-13 -10 -27 -19 -30 -19 -3 0 -39 -19 -80 -41 -97 -54 -136
-76 -454 -252 -148 -82 -292 -162 -320 -177 -27 -15 -75 -41 -105 -58 -30 -16
-107 -59 -170 -94 -63 -35 -146 -82 -185 -103 -38 -21 -104 -57 -145 -80 -41
-23 -82 -45 -90 -48 -8 -4 -28 -15 -45 -25 -16 -10 -102 -58 -190 -107 -88
-48 -180 -99 -205 -113 -86 -49 -145 -82 -204 -112 l-58 -31 -212 117 c-116
64 -231 128 -256 142 -25 13 -58 32 -75 42 -16 10 -57 32 -90 50 -86 47 -110
60 -425 235 -157 87 -310 171 -340 188 -30 16 -113 62 -185 102 -71 40 -150
83 -175 97 -25 14 -62 35 -82 46 -21 12 -68 38 -105 58 -63 35 -124 68 -292
162 l-64 35 44 21 c24 12 78 36 119 55 41 19 109 49 150 68 41 19 98 45 125
58 28 12 77 35 110 50 33 16 112 52 175 80 63 29 144 66 180 83 36 16 92 42
125 57 67 30 114 52 259 119 54 25 100 46 101 46 2 0 45 20 97 44 51 24 221
102 378 174 157 71 314 143 350 159 86 40 92 42 110 33 8 -5 175 -81 370 -170z
m-2875 -1350 c33 -18 121 -67 195 -108 74 -41 158 -87 185 -102 28 -15 106
-59 175 -97 163 -90 227 -126 298 -164 31 -18 71 -40 87 -49 17 -10 55 -31 85
-48 30 -16 154 -85 275 -152 121 -67 254 -141 295 -163 41 -22 80 -43 85 -47
6 -4 39 -23 75 -42 82 -44 156 -85 195 -108 17 -9 56 -31 88 -49 148 -81 173
-95 185 -104 9 -7 12 -317 12 -1488 0 -814 -3 -1479 -7 -1479 -5 0 -28 12 -52
26 -25 14 -74 41 -110 61 -37 20 -117 65 -180 99 -62 35 -115 64 -117 64 -2 0
-25 13 -51 28 -26 16 -77 44 -113 64 -36 20 -168 93 -295 163 -126 70 -248
138 -270 150 -132 72 -167 92 -235 130 -41 23 -104 58 -140 77 -36 20 -224
124 -419 232 -194 108 -357 196 -362 196 -5 0 -9 634 -9 1491 l0 1491 33 -20
c17 -11 59 -34 92 -52z m5084 -2906 c-6 -8 -15 -14 -19 -14 -5 0 -39 -17 -77
-39 -37 -21 -176 -98 -308 -171 -249 -138 -296 -164 -355 -197 -19 -11 -71
-39 -115 -63 -44 -24 -97 -54 -117 -67 -21 -12 -40 -23 -42 -23 -3 0 -80 -42
-173 -93 -92 -52 -193 -108 -223 -124 -30 -17 -93 -52 -140 -78 -47 -26 -107
-60 -135 -75 -27 -15 -66 -36 -85 -47 -54 -30 -138 -76 -215 -118 -38 -21 -74
-41 -80 -45 -5 -4 -37 -22 -70 -40 -33 -18 -87 -48 -121 -66 -33 -19 -64 -34
-67 -34 -4 0 -6 667 -5 1482 l3 1482 330 184 c182 101 362 200 400 221 39 21
126 70 195 108 69 39 150 84 180 100 81 45 691 383 790 438 47 26 110 61 140
78 57 31 111 61 240 132 l75 42 3 -1480 c1 -1085 -1 -1483 -9 -1493z"/>
</g>
</svg>
